# xmcd
#
# Track frame offsets: 
#        150
#        16374
#        36069
#        56295
#        76383
#        95682
#        116583
#        130344
#        152043
#        164142
#        179016
#        195657
#
# Disc length: 2783 seconds
#
# Revision: 3
# Processed by: cddbd v1.5.1PL0 Copyright (c) Steve Scherf et al.
# Submitted via: ExactAudioCopy v0.95b2
#
DISCID=a00add0c
DTITLE=Gary Primich - Company Man
DYEAR=1997
DGENRE=Blues
TTITLE0=Company Man
TTITLE1=Turn Your Damper Down
TTITLE2=My Home
TTITLE3=The Briar Patch
TTITLE4=What's It Gonna Be
TTITLE5=Ain't You Trouble
TTITLE6=Big Daddy's Coming Home
TTITLE7=Dry County Blues
TTITLE8=Hook, Line And Sinker
TTITLE9=Varmint
TTITLE10=Cold Hand In Mine
TTITLE11=Jailbird
EXTD=Gary Primich Harmonica, Vocals, Producer  \nShorty Lenoir Guitar 
EXTD=\nJeff Minnick Drums, Vocals (bckgr)  \nJames Polk Organ  \nMark
EXTD=Rubin Bass, Bass (Acoustic)  \n\nBlack Top 1136 
EXTT0=
EXTT1=
EXTT2=
EXTT3=
EXTT4=
EXTT5=
EXTT6=
EXTT7=
EXTT8=
EXTT9=
EXTT10=
EXTT11=
PLAYORDER=
